<svg width="344" height="108" viewBox="0 0 344 108" fill="none" xmlns="http://www.w3.org/2000/svg">
<path opacity="0.75" d="M78.0474 15.8572C78.4249 14.9733 79.2933 14.3999 80.2545 14.3999L111.571 14.3999C113.296 14.3999 114.458 16.165 113.776 17.7492L75.5337 106.549C75.1546 107.43 74.2879 108 73.3294 108H42.3238C40.602 108 39.4404 106.241 40.1167 104.657L78.0474 15.8572Z" fill="#01132B"/>
<path d="M1.22187 3.24559C0.631009 1.67612 1.79096 0 3.46797 0L34.4803 0C35.4796 0 36.3743 0.619192 36.7264 1.55441L75.5781 104.754C76.169 106.324 75.009 108 73.332 108L42.3197 108C41.3204 108 40.4257 107.381 40.0736 106.446L1.22187 3.24559Z" fill="#01132B"/>
<path d="M78.0691 17.6686C77.4583 16.0955 78.6188 14.3999 80.3064 14.3999L111.607 14.3999C112.598 14.3999 113.486 15.0081 113.845 15.9313L142.731 90.3313C143.342 91.9044 142.181 93.5999 140.494 93.5999L109.194 93.5999C108.204 93.5999 107.315 92.9917 106.957 92.0686L78.0691 17.6686Z" fill="#01132B"/>
<path d="M178.999 71.866C178.999 68.84 179.883 66.409 181.651 64.573C183.419 62.737 185.833 61.819 188.893 61.819C191.987 61.819 195.149 62.125 198.379 62.737L197.359 70.897C193.993 70.115 191.681 69.724 190.423 69.724C188.825 69.724 188.026 70.37 188.026 71.662C188.026 72.172 188.4 72.665 189.148 73.141C189.93 73.617 190.865 74.127 191.953 74.671C193.041 75.181 194.129 75.81 195.217 76.558C196.305 77.272 197.223 78.309 197.971 79.669C198.753 81.029 199.144 82.593 199.144 84.361C199.144 87.591 198.277 90.09 196.543 91.858C194.809 93.626 192.344 94.51 189.148 94.51C185.986 94.51 182.892 94.017 179.866 93.031L180.427 85.432C184.065 86.486 186.598 87.013 188.026 87.013C189.454 87.013 190.168 86.384 190.168 85.126C190.168 84.48 189.777 83.885 188.995 83.341C188.247 82.797 187.329 82.253 186.241 81.709C185.153 81.165 184.048 80.536 182.926 79.822C181.838 79.108 180.903 78.071 180.121 76.711C179.373 75.351 178.999 73.736 178.999 71.866ZM233.659 62.329L230.803 94H220.297L217.543 79.975H217.135L214.84 94H204.283L200.968 62.329H209.332L210.658 79.108H211.168L213.31 62.329H221.827L224.173 79.108H224.683L225.601 62.329H233.659ZM246.085 94H237.415V62.329H246.085V94ZM269.511 70.03H263.595V94H254.874V70.03H248.601L249.111 62.329H270.021L269.511 70.03ZM279.872 78.496C279.872 81.488 280.161 83.63 280.739 84.922C281.351 86.18 282.337 86.809 283.697 86.809C285.057 86.809 286.978 86.486 289.46 85.84L290.786 93.031C288.1 94.017 285.397 94.51 282.677 94.51C278.597 94.51 275.622 93.167 273.752 90.481C271.916 87.761 270.998 83.732 270.998 78.394C270.998 73.022 271.967 68.925 273.905 66.103C275.843 63.247 279.005 61.819 283.391 61.819C285.975 61.819 288.44 62.363 290.786 63.451L289.409 71.356C286.757 70.472 284.904 70.03 283.85 70.03C282.354 70.03 281.317 70.693 280.739 72.019C280.161 73.311 279.872 75.47 279.872 78.496ZM316.345 94H307.675V82.015H301.708V94H292.936V62.329H301.708V74.773H307.675V62.329H316.345V94ZM342.302 72.376C342.302 74.28 342.013 75.861 341.435 77.119C340.857 78.377 339.956 79.516 338.732 80.536L342.965 94H333.53L330.368 82.576H329.195V94H320.627V62.329H332.459C335.859 62.329 338.341 63.128 339.905 64.726C341.503 66.324 342.302 68.874 342.302 72.376ZM330.521 77.221C331.405 77.221 332.034 76.966 332.408 76.456C332.782 75.946 332.969 75.028 332.969 73.702C332.969 72.342 332.782 71.407 332.408 70.897C332.034 70.353 331.422 70.081 330.572 70.081H329.195V77.221H330.521Z" fill="#01132B"/>
<path d="M180.867 14.9291L175.512 46.6001H162.048L156.336 14.9291H165.975L168.729 35.6861H169.596L171.687 14.9291H180.867ZM192.897 46.6001H184.227V14.9291H192.897V46.6001ZM219.586 24.9761C219.586 26.8801 219.297 28.4611 218.719 29.7191C218.141 30.9771 217.24 32.1161 216.016 33.1361L220.249 46.6001H210.814L207.652 35.1761H206.479V46.6001H197.911V14.9291H209.743C213.143 14.9291 215.625 15.7281 217.189 17.3261C218.787 18.9241 219.586 21.4741 219.586 24.9761ZM207.805 29.8211C208.689 29.8211 209.318 29.5661 209.692 29.0561C210.066 28.5461 210.253 27.6281 210.253 26.3021C210.253 24.9421 210.066 24.0071 209.692 23.4971C209.318 22.9531 208.706 22.6811 207.856 22.6811H206.479V29.8211H207.805ZM241.523 22.6301H235.607V46.6001H226.886V22.6301H220.613L221.123 14.9291H242.033L241.523 22.6301ZM252.955 36.1961C252.955 37.2501 253.176 38.0321 253.618 38.5421C254.06 39.0521 254.774 39.3071 255.76 39.3071C256.78 39.3071 257.477 39.0691 257.851 38.5931C258.259 38.0831 258.463 37.2671 258.463 36.1451V14.9291H267.235V36.6551C267.235 40.2931 266.232 42.9451 264.226 44.6111C262.254 46.2771 259.33 47.1101 255.454 47.1101C251.612 47.1101 248.739 46.2941 246.835 44.6621C244.965 42.9961 244.03 40.3611 244.03 36.7571V14.9291H252.955V36.1961ZM294.468 46.6001H285.951L284.982 41.6021H278.964L277.995 46.6001H269.886L275.7 14.9291H288.654L294.468 46.6001ZM284.013 35.6351L282.228 24.3131H281.871L280.086 35.6351H284.013ZM313.238 46.6001H297.122V14.9291H305.843V39.5111H313.748L313.238 46.6001Z" fill="#01132B"/>
</svg>
